<svg id="visual" viewBox="0 0 900 600" width="900" height="600" xmlns="http://www.w3.org/2000/svg" xmlns:xlink="http://www.w3.org/1999/xlink" version="1.1"><path d="M0 348L129 376L257 418L386 412L514 415L643 392L771 361L900 434L900 601L771 601L643 601L514 601L386 601L257 601L129 601L0 601Z" fill="#242f4f"></path><path d="M0 402L129 437L257 453L386 444L514 421L643 410L771 422L900 397L900 601L771 601L643 601L514 601L386 601L257 601L129 601L0 601Z" fill="#1b233c"></path><path d="M0 484L129 497L257 493L386 439L514 423L643 461L771 494L900 476L900 601L771 601L643 601L514 601L386 601L257 601L129 601L0 601Z" fill="#12182a"></path><path d="M0 475L129 484L257 511L386 523L514 490L643 479L771 519L900 480L900 601L771 601L643 601L514 601L386 601L257 601L129 601L0 601Z" fill="#0e1120"></path><path d="M0 499L129 549L257 537L386 546L514 540L643 545L771 515L900 507L900 601L771 601L643 601L514 601L386 601L257 601L129 601L0 601Z" fill="#0d101d"></path><path d="M0 550L129 568L257 574L386 563L514 537L643 543L771 554L900 570L900 601L771 601L643 601L514 601L386 601L257 601L129 601L0 601Z" fill="#0c0e1a"></path></svg>