<svg id="visual" viewBox="0 0 900 200" width="900" height="200" xmlns="http://www.w3.org/2000/svg" xmlns:xlink="http://www.w3.org/1999/xlink" version="1.1"><path d="M0 115L129 125L257 139L386 137L514 138L643 130L771 120L900 144L900 201L771 201L643 201L514 201L386 201L257 201L129 201L0 201Z" fill="#242f4f"></path><path d="M0 133L129 145L257 150L386 147L514 140L643 136L771 140L900 132L900 201L771 201L643 201L514 201L386 201L257 201L129 201L0 201Z" fill="#1b233c"></path><path d="M0 161L129 165L257 164L386 146L514 140L643 153L771 164L900 158L900 201L771 201L643 201L514 201L386 201L257 201L129 201L0 201Z" fill="#12182a"></path><path d="M0 158L129 161L257 170L386 174L514 163L643 159L771 172L900 159L900 201L771 201L643 201L514 201L386 201L257 201L129 201L0 201Z" fill="#0e1120"></path><path d="M0 166L129 182L257 178L386 181L514 179L643 181L771 171L900 168L900 201L771 201L643 201L514 201L386 201L257 201L129 201L0 201Z" fill="#0d101d"></path><path d="M0 183L129 189L257 191L386 187L514 178L643 180L771 184L900 189L900 201L771 201L643 201L514 201L386 201L257 201L129 201L0 201Z" fill="#0c0e1a"></path></svg>